<svg xmlns="http://www.w3.org/2000/svg" viewBox="0 0 291.79 291.79"><circle cx="145.9" cy="145.9" r="145.9" fill="#fff"/><path d="M63.56,260.09a7.31,7.31,0,0,1,1.5-2.49c2.88-2.61,1.78-4.55,1.78-4.55l3-1.52L69,249l3-.59c-.85-.85-.68-9.1-.68-9.1l2.29.67v-9.94l2,.93L76.32,220l2.88,2.27c1-9.77,4.41-18.7,9.07-25.1s4.15-4.46,20.57-4.46,15.25-.59,16.52-1.18,7.45-.59,7.45-.59c10.33-4.72,9.82-9.52,11.6-10.7s3.05-3.28,2-3.7-12.45-9-15.07-10.62a14.55,14.55,0,0,0-6.27-1.68s-7-4.13-8.89-4.72-1-.84-1.78-1.77-4.91-7.33-4.66-8.25a3.23,3.23,0,0,0,0-1.69L99,139.92c5.17-.67,13.46-24.93,8-20.38a90.53,90.53,0,0,1-9.35,7,32.57,32.57,0,0,1,4-8.49c2.64-3.71-3.11-1.55-5.12,0s-8.08,5.4-12.74,8.19-6.06,4.47-8.85,7.1-7,1.39-9.48,2a10.6,10.6,0,0,0-4.34,2.47c-8.39,2.47-28.12,22.71-30.91,25.34S18.81,176.28,13.85,180c-1.7,1.27-5.52,3.53-9.78,6A146.14,146.14,0,0,0,61.85,266,26.54,26.54,0,0,1,63.56,260.09Z" fill="#4ca99c"/><path d="M145.11,0A146.69,146.69,0,0,0,8.36,93.14c31.74-2.11,59,2.57,76.91,8.61s27.07-1.14,27.07-1.14c-7.26-10.54-5.07-15.47-5.07-15.47,20-4.7,31.91,5.61,33.41,6.3s6.1,1.15,11.63-7.56,12.22-7.79,12.22-7.79h12.55c6.91,0,11.29,11.46,11.29,11.46L199.77,98s17.86-4.35,24.66-4.7,14-.22,13.13,4.24S230.3,114,223,117.63s-15.09.74-18.2.05-1.27,5.27-1.27,5.27c2.42,12.6.35,12.38-1.72,18s.23,10.43.46,12.26,8.75,12.37,10.82,14.9,3.23,5.27,3.23,6.41-1.5,6.88-3.69,11.2-11,6.1-17.39,4.5-8.06-.46-16.93,1.49-14.06-2.18-15.09-4.81-3,0-3,0C149,208,118.1,233.29,118.1,233.29L96.71,283.62a147.13,147.13,0,0,0,48.4,8.17c81,0,146.68-65.32,146.68-145.89S226.12,0,145.11,0Z" fill="#4ca99c"/></svg>